<svg width="53" height="53" viewBox="0 0 53 53" fill="none" xmlns="http://www.w3.org/2000/svg">
<path d="M46.375 11.0417C43.9238 10.2688 41.2296 9.9375 38.6458 9.9375C34.3396 9.9375 29.7021 10.8208 26.5 13.25C23.2979 10.8208 18.6604 9.9375 14.3542 9.9375C10.0479 9.9375 5.41043 10.8208 2.20834 13.25V45.6021C2.20834 46.1542 2.76043 46.7063 3.31251 46.7063C3.53334 46.7063 3.64376 46.5958 3.86459 46.5958C6.84584 45.1604 11.1521 44.1667 14.3542 44.1667C18.6604 44.1667 23.2979 45.05 26.5 47.4792C29.4813 45.6021 34.8917 44.1667 38.6458 44.1667C42.2896 44.1667 46.0438 44.8292 49.1354 46.4854C49.3563 46.5958 49.4667 46.5958 49.6875 46.5958C50.2396 46.5958 50.7917 46.0438 50.7917 45.4917V13.25C49.4667 12.2563 48.0313 11.5938 46.375 11.0417ZM46.375 40.8542C43.9458 40.0813 41.2958 39.75 38.6458 39.75C34.8917 39.75 29.4813 41.1854 26.5 43.0625V17.6667C29.4813 15.7896 34.8917 14.3542 38.6458 14.3542C41.2958 14.3542 43.9458 14.6854 46.375 15.4583V40.8542Z" fill="#141518"/>
<path d="M38.6458 23.1875C40.5892 23.1875 42.4663 23.3863 44.1667 23.7617V20.405C42.4221 20.0737 40.545 19.875 38.6458 19.875C34.8917 19.875 31.4908 20.5154 28.7083 21.7079V25.3737C31.2038 23.9604 34.6708 23.1875 38.6458 23.1875ZM28.7083 27.5821V31.2479C31.2038 29.8346 34.6708 29.0617 38.6458 29.0617C40.5892 29.0617 42.4663 29.2604 44.1667 29.6358V26.2792C42.4221 25.9479 40.545 25.7492 38.6458 25.7492C34.8917 25.7492 31.4908 26.4117 28.7083 27.5821ZM38.6458 31.6454C34.8917 31.6454 31.4908 32.2858 28.7083 33.4783V37.1442C31.2038 35.7308 34.6708 34.9579 38.6458 34.9579C40.5892 34.9579 42.4663 35.1567 44.1667 35.5321V32.1754C42.4221 31.8221 40.545 31.6454 38.6458 31.6454Z" fill="#6100E0"/>
</svg>
